<?xml version="1.0" encoding="UTF-8"?>
<svg width="48" height="48" viewBox="0 0 48 48" fill="none" xmlns="http://www.w3.org/2000/svg">
  <circle cx="24" cy="24" r="24" fill="#5865F2"/>
  <path d="M32 16C32 16 28.5 13.5 24 13.5C19.5 13.5 16 16 16 16C16 16 15.5 21.5 16 26C16.5 30.5 19 32 19 32L21.5 29C21.5 29 20.5 28 20 26C19.5 24 20 21 20 21C20 21 21.5 22 24 22C26.5 22 28 21 28 21C28 21 28.5 24 28 26C27.5 28 26.5 29 26.5 29L29 32C29 32 31.5 30.5 32 26C32.5 21.5 32 16 32 16Z" fill="white"/>
</svg> 